<?xml version="1.0" standalone="no"?><!DOCTYPE svg PUBLIC "-//W3C//DTD SVG 1.1//EN" "http://www.w3.org/Graphics/SVG/1.1/DTD/svg11.dtd"><svg t="1582704193153" class="icon" viewBox="0 0 1024 1024" version="1.1" xmlns="http://www.w3.org/2000/svg" p-id="866" xmlns:xlink="http://www.w3.org/1999/xlink" width="200" height="200"><defs><style type="text/css"></style></defs><path d="M181.60526283 181.60526283v491.13743869h660.78947434V181.60526283H181.60526283zM185.89340024 116.4921875h652.21319951C876.36677644 116.4921875 907.5078125 147.54995912 907.5078125 185.89340024v486.84930128c0 38.26017668-31.01613902 69.40121275-69.40121275 69.40121275H185.89340024A69.44284536 69.44284536 0 0 1 116.4921875 672.74270152V185.89340024C116.4921875 147.54995912 147.50832652 116.4921875 185.89340024 116.4921875zM304.25431731 602.25904569a34.72142306 34.72142306 0 0 1-56.86985979-39.75894273l150.16807095-231.80921073 197.29594991 131.30859375 126.85392668-206.62160777a34.67979046 34.67979046 0 1 1 54.1637544 43.38096234l-166.44634054 256.24742988-193.71556291-128.89391426-111.4499387 176.14668952z m-14.27991384 235.84755407h444.05119306c19.15090464 0 34.67979046 15.48725321 34.6797897 34.63815784 0 19.15090464-15.52888582 34.7630549-34.76305489 34.7630549H289.97440347a34.67979046 34.67979046 0 0 1 0-69.40121274z" p-id="867"></path></svg>