<svg class="icon" viewBox="0 0 1024 1024" xmlns="http://www.w3.org/2000/svg" width="200" height="200"><defs><style/></defs><path d="M792 822H232a90.1 90.1 0 01-90-90v-70a50 50 0 01100 0v60h540v-60a50 50 0 01100 0v70a90.1 90.1 0 01-90 90zm90-460v-70a90.1 90.1 0 00-90-90H232a90.1 90.1 0 00-90 90v70a50 50 0 00100 0v-60h540v60a50 50 0 00100 0zm-635 95a55 55 0 1055 55 55 55 0 00-55-55zm176.67 0a55 55 0 1055 55 55 55 0 00-55-55zM777 457a55 55 0 1055 55 55 55 0 00-55-55zm-176.67 0a55 55 0 1055 55 55 55 0 00-55-55z"/></svg>